<?xml version="1.0" encoding="utf-8"?>
<!-- Generator: Adobe Illustrator 17.0.1, SVG Export Plug-In . SVG Version: 6.00 Build 0)  -->
<!DOCTYPE svg PUBLIC "-//W3C//DTD SVG 1.1//EN" "http://www.w3.org/Graphics/SVG/1.1/DTD/svg11.dtd">
<svg version="1.1" id="Layer_1" xmlns="http://www.w3.org/2000/svg" xmlns:xlink="http://www.w3.org/1999/xlink" x="0px" y="0px"
	 width="113px" height="36px" viewBox="0 0 113 36" enable-background="new 0 0 113 36" xml:space="preserve">
<linearGradient id="SVGID_1_" gradientUnits="userSpaceOnUse" x1="17.3363" y1="6.9982" x2="31.0562" y2="6.9982">
	<stop  offset="0" style="stop-color:#2E3192"/>
	<stop  offset="0.2517" style="stop-color:#2E3293"/>
	<stop  offset="0.3889" style="stop-color:#2A3795"/>
	<stop  offset="0.4986" style="stop-color:#223F99"/>
	<stop  offset="0.5938" style="stop-color:#114A9F"/>
	<stop  offset="0.6795" style="stop-color:#0057A8"/>
	<stop  offset="0.7584" style="stop-color:#0065B2"/>
	<stop  offset="0.8321" style="stop-color:#0076BF"/>
	<stop  offset="0.9018" style="stop-color:#008AD0"/>
	<stop  offset="0.9658" style="stop-color:#009FE3"/>
	<stop  offset="1" style="stop-color:#00AEEF"/>
</linearGradient>
<path fill="url(#SVGID_1_)" d="M17.336,3.204l5.302,4.465l0.76,0.64l6.128,5.159c0.79-0.814,1.345-1.985,1.493-3.328
	c0.179-1.654-0.306-3.188-1.2-4.19l-0.842-0.708L24.889,1.8c-0.002-0.005-0.005-0.007-0.007-0.007L24.46,1.437
	c-0.002-0.002-0.002-0.005-0.005-0.005c-0.785-0.576-1.826-0.921-2.961-0.903c-1.268,0.018-2.405,0.486-3.192,1.214
	c-0.005,0.002-0.007,0.005-0.009,0.009l-0.606,0.721c-0.002,0-0.002,0-0.002,0.002C17.538,2.705,17.42,2.948,17.336,3.204z"/>
<linearGradient id="SVGID_2_" gradientUnits="userSpaceOnUse" x1="17.2568" y1="16.2237" x2="37.4354" y2="16.2237">
	<stop  offset="0" style="stop-color:#2E3192"/>
	<stop  offset="0.2517" style="stop-color:#2E3293"/>
	<stop  offset="0.3889" style="stop-color:#2A3795"/>
	<stop  offset="0.4986" style="stop-color:#223F99"/>
	<stop  offset="0.5938" style="stop-color:#114A9F"/>
	<stop  offset="0.6795" style="stop-color:#0057A8"/>
	<stop  offset="0.7584" style="stop-color:#0065B2"/>
	<stop  offset="0.8321" style="stop-color:#0076BF"/>
	<stop  offset="0.9018" style="stop-color:#008AD0"/>
	<stop  offset="0.9658" style="stop-color:#009FE3"/>
	<stop  offset="1" style="stop-color:#00AEEF"/>
</linearGradient>
<path fill="url(#SVGID_2_)" d="M17.257,23.861c0,0,0.431,0.923,1.221,1.597c0.009,0.009,0.02,0.018,0.032,0.027
	c0.002,0.002,0.007,0.005,0.011,0.007v0.002c0.799,0.635,1.892,1.021,3.09,1.003c1.039-0.016,1.987-0.331,2.729-0.842l0.617-0.522
	l9.209-7.755l0.245-0.206l2.044-1.724c0.009-0.007,0.02-0.014,0.029-0.023l0.179-0.15c0.179-0.168,0.331-0.361,0.451-0.574
	c0.204-0.356,0.32-0.767,0.32-1.207c0-0.703-0.297-1.334-0.771-1.781l-0.179-0.15c-0.009-0.009-0.02-0.016-0.029-0.023l-2.289-1.931
	l-4.347-3.662c0.894,1.003,1.379,2.537,1.2,4.19c-0.147,1.343-0.703,2.514-1.493,3.328l0.032,0.027l-6.942,5.847l-5.132,4.324
	L17.323,23.8c0,0.002,0,0.002,0.002,0.005L17.257,23.861z"/>
<path d="M9.142,13.277L8.3,13.985C8.55,13.704,8.834,13.464,9.142,13.277z"/>
<linearGradient id="SVGID_3_" gradientUnits="userSpaceOnUse" x1="7.579" y1="20.6225" x2="18.2165" y2="8.3853">
	<stop  offset="0" style="stop-color:#00AEEF"/>
	<stop  offset="0.0074" style="stop-color:#00A8EA"/>
	<stop  offset="0.0477" style="stop-color:#0093D8"/>
	<stop  offset="0.0931" style="stop-color:#007FC7"/>
	<stop  offset="0.1419" style="stop-color:#006EB9"/>
	<stop  offset="0.195" style="stop-color:#005FAE"/>
	<stop  offset="0.2537" style="stop-color:#0052A5"/>
	<stop  offset="0.32" style="stop-color:#18469D"/>
	<stop  offset="0.3974" style="stop-color:#253D98"/>
	<stop  offset="0.4931" style="stop-color:#2B3695"/>
	<stop  offset="0.6274" style="stop-color:#2E3293"/>
	<stop  offset="1" style="stop-color:#2E3192"/>
</linearGradient>
<path fill="url(#SVGID_3_)" d="M20.783,11.24l-5.302,4.465l-0.76,0.64l-6.128,5.159c-0.79-0.814-1.345-1.985-1.493-3.328
	c-0.179-1.654,0.306-3.188,1.2-4.19l0.842-0.708l4.088-3.442c0.002-0.005,0.005-0.007,0.007-0.007l0.422-0.356
	c0.002-0.002,0.002-0.005,0.005-0.005c0.785-0.576,1.826-0.921,2.961-0.903c1.268,0.018,2.405,0.486,3.192,1.214
	c0.005,0.002,0.007,0.005,0.009,0.009l0.606,0.721c0.002,0,0.002,0,0.002,0.002C20.581,10.741,20.699,10.984,20.783,11.24z"/>
<path d="M13.659,9.473l-0.422,0.356C13.369,9.702,13.51,9.582,13.659,9.473z"/>
<path d="M20.432,10.51l-0.606-0.721C20.062,10.006,20.266,10.249,20.432,10.51z"/>
<linearGradient id="SVGID_4_" gradientUnits="userSpaceOnUse" x1="2.8515" y1="27.9179" x2="17.4769" y2="22.5947">
	<stop  offset="0" style="stop-color:#00AEEF"/>
	<stop  offset="0.082" style="stop-color:#0095D9"/>
	<stop  offset="0.1685" style="stop-color:#007FC6"/>
	<stop  offset="0.2604" style="stop-color:#006CB7"/>
	<stop  offset="0.3561" style="stop-color:#005CAB"/>
	<stop  offset="0.4566" style="stop-color:#054DA2"/>
	<stop  offset="0.5636" style="stop-color:#20419A"/>
	<stop  offset="0.6802" style="stop-color:#293896"/>
	<stop  offset="0.8133" style="stop-color:#2D3293"/>
	<stop  offset="1" style="stop-color:#2E3192"/>
</linearGradient>
<path fill="url(#SVGID_4_)" d="M20.863,31.897c0,0-0.431,0.923-1.221,1.597c-0.009,0.009-0.02,0.018-0.032,0.027
	c-0.002,0.002-0.007,0.005-0.011,0.007v0.002c-0.799,0.635-1.892,1.021-3.09,1.003c-1.039-0.016-1.987-0.331-2.729-0.842
	l-0.617-0.522l-9.209-7.755l-0.245-0.206l-2.044-1.724c-0.009-0.007-0.02-0.014-0.029-0.023l-0.179-0.15
	c-0.179-0.168-0.331-0.361-0.451-0.574c-0.204-0.356-0.32-0.767-0.32-1.207c0-0.703,0.297-1.334,0.771-1.781l0.179-0.15
	c0.009-0.009,0.02-0.016,0.029-0.023l2.289-1.931L8.3,13.985c-0.894,1.003-1.379,2.537-1.2,4.19
	c0.147,1.343,0.703,2.514,1.493,3.328l-0.032,0.027l6.942,5.847l5.132,4.324l0.161,0.134c0,0.002,0,0.002-0.002,0.005L20.863,31.897
	z"/>
<path d="M13.78,33.692c-0.227-0.157-0.433-0.331-0.617-0.522L13.78,33.692z"/>
<path d="M20.772,31.815"/>
<polygon points="19.61,33.522 19.599,33.531 19.599,33.529 "/>
<g>
	<path fill="#2E3192" d="M41.965,21.75v9.034H110V21.75H41.965z M47.858,28.652c0.668,0,1.242-0.33,1.688-0.773l0.595,0.824
		c-0.563,0.552-1.278,0.977-2.251,0.977c-1.848,0-3.38-1.521-3.38-3.362c0-1.834,1.532-3.377,3.366-3.377
		c0.846,0.015,1.623,0.374,2.266,0.998l-0.595,0.802c-0.457-0.457-1.053-0.759-1.692-0.759c-1.18,0-2.309,1.035-2.309,2.342
		C45.545,27.635,46.688,28.652,47.858,28.652z M59.531,29.679c-1.855,0-3.369-1.514-3.369-3.355c0-1.863,1.514-3.384,3.369-3.384
		c1.852,0,3.377,1.521,3.377,3.384C62.908,28.165,61.383,29.679,59.531,29.679z M71.502,29.574h-1.855v-6.517h1.855
		c2.07-0.007,3.362,1.245,3.362,3.268C74.864,28.325,73.571,29.574,71.502,29.574z M82.627,29.574h-1.024v-6.517h1.024V29.574z
		 M94.921,29.687H94.87l-4.168-4.357v4.252h-1.024V22.94h0.054l4.161,4.35v-4.252h1.028V29.687z M105.066,29.683
		c-1.895,0-3.402-1.51-3.402-3.359c0-1.855,1.514-3.38,3.366-3.38c0.821,0.007,1.761,0.399,2.375,0.998l-0.57,0.853
		c-0.508-0.501-1.198-0.817-1.819-0.817c-1.184,0-2.309,0.991-2.309,2.346c0,1.274,1.013,2.327,2.407,2.327
		c1.118,0,1.957-0.683,1.957-1.677v-0.018h-2.015v-0.94h3.083c0.018,0.149,0.033,0.327,0.033,0.508
		C108.17,28.463,106.761,29.683,105.066,29.683z"/>
	<path fill="#2E3192" d="M61.869,26.314c0,1.282-1.054,2.329-2.339,2.329c-1.288,0-2.336-1.048-2.336-2.329
		c0-1.288,1.048-2.343,2.336-2.343C60.814,23.971,61.869,25.026,61.869,26.314z"/>
	<path fill="#2E3192" d="M73.827,26.318c0,1.377-0.892,2.238-2.316,2.238h-0.848V24.07h0.834
		C72.929,24.07,73.827,24.934,73.827,26.318z"/>
</g>
<path d="M83.74,23.902c0,0.013-0.001,0.026-0.001,0.038v-0.068C83.74,23.882,83.74,23.892,83.74,23.902z"/>
<path d="M80.927,26.728c-0.021,0.011-0.042,0.021-0.064,0.029C80.884,26.747,80.906,26.738,80.927,26.728z"/>
<g>
	<path fill="#2E3192" d="M99.766,14.3c-0.056,0.023-0.112,0.045-0.167,0.066C99.653,14.337,99.709,14.314,99.766,14.3z"/>
	<path fill="#2E3192" d="M54.575,16.893c-0.007,0.004-0.014,0.006-0.022,0.009h-0.516c-0.202-0.076-0.368-0.242-0.451-0.454
		l-0.05-0.193v-0.002l-0.043-0.166l-1.726-6.635l-2.938,6.964c0.011-0.035,0.016-0.072,0.016-0.111
		c-0.001,0.032-0.006,0.063-0.016,0.093c-0.009,0.034-0.022,0.065-0.04,0.094c-0.071,0.122-0.203,0.202-0.352,0.202
		c-0.087,0-0.166-0.027-0.231-0.072c-0.044-0.027-0.081-0.062-0.111-0.103l-0.001-0.001c-0.017-0.022-0.03-0.047-0.041-0.073
		c-0.008-0.008-0.008-0.016-0.012-0.024l-2.958-7.038l-1.799,6.896l-0.01,0.038c-0.001,0.001-0.001,0.001-0.001,0.002l-0.022,0.081
		c-0.074,0.232-0.252,0.417-0.48,0.501h-0.547c-0.13-0.048-0.244-0.129-0.331-0.233c-0.001-0.001-0.001-0.001-0.001-0.001
		c-0.09-0.128-0.144-0.284-0.15-0.452l0.125-0.479l0.021-0.079l2.559-9.75l0.028-0.104c0.064-0.148,0.208-0.247,0.376-0.247
		c0.156,0,0.296,0.087,0.359,0.219L45.24,5.84l3.189,7.593l3.167-7.589c0,0,0.001-0.001,0.001-0.001l0.027-0.063
		c0.05-0.099,0.141-0.174,0.25-0.204c0.009-0.003,0.019-0.005,0.028-0.007c0.026-0.005,0.053-0.008,0.081-0.008
		c0.152,0,0.28,0.08,0.352,0.196c0.009,0.015,0.017,0.031,0.024,0.047c0,0.001,0.001,0.001,0.001,0.001l0.028,0.107l0.014,0.056
		l2.579,9.828l0.025,0.097c0.001,0.001,0.001,0.001,0.001,0.002l0.025,0.099c0.006,0.029,0.01,0.059,0.013,0.089
		C55.076,16.442,54.877,16.766,54.575,16.893z"/>
	<path fill="#2E3192" d="M67.522,16.023c-0.005-0.058-0.016-0.113-0.032-0.167c-0.001-0.004-0.002-0.007-0.004-0.011
		c-0.02-0.068-0.05-0.132-0.087-0.19l-0.006-0.014l-4.57-10.05c-0.001-0.001-0.001-0.004-0.002-0.005L62.797,5.53
		c-0.002-0.004-0.004-0.009-0.007-0.013c-0.072-0.116-0.2-0.196-0.352-0.196c-0.149,0-0.278,0.08-0.348,0.199L62.055,5.6
		c-0.001,0.001-0.001,0.003-0.001,0.004l-4.493,9.964l-0.164,0.363c-0.005,0.028-0.009,0.057-0.012,0.086
		c-0.039,0.45,0.275,0.844,0.7,0.881c0.011,0.001,0.022,0.002,0.032,0.002h0.07c0.232-0.012,0.442-0.133,0.579-0.32l0.145-0.324
		l1.055-2.352h4.968l1.103,2.434l0.081,0.177c0.149,0.247,0.419,0.4,0.713,0.375c0.373-0.033,0.658-0.343,0.69-0.723
		C67.527,16.122,67.527,16.073,67.522,16.023z M60.564,12.574l1.872-4.175l1.893,4.175H60.564z"/>
	<path fill="#2E3192" d="M78.421,5.996c0.001,0.409-0.291,0.746-0.667,0.793c-0.022,0.003-0.046,0.005-0.069,0.005h-2.724v9.341
		c-0.032,0.428-0.372,0.766-0.787,0.766c-0.001,0-0.001,0-0.001,0c-0.205,0-0.391-0.082-0.532-0.216
		c-0.037-0.036-0.071-0.076-0.102-0.118c-0.015-0.021-0.029-0.043-0.043-0.066c-0.009-0.016-0.017-0.032-0.026-0.048
		c-0.007-0.014-0.014-0.029-0.02-0.044c-0.043-0.103-0.068-0.219-0.069-0.34c0-0.022,0.001-0.045,0.002-0.067
		c-0.002,0.022-0.003,0.043-0.003,0.066V6.794h-2.764c-0.006,0.001-0.013,0.001-0.019,0.001c-0.418,0.001-0.757-0.356-0.758-0.797
		c-0.001-0.441,0.338-0.798,0.756-0.799c0.001,0,0.001,0,0.001,0V5.195h7.157v0.009C78.13,5.251,78.421,5.587,78.421,5.996z"/>
	<path fill="#2E3192" d="M82.289,11.297v4.024h4.114v0.001c0.41,0.004,0.741,0.356,0.741,0.789c0.001,0.436-0.334,0.79-0.748,0.791
		c-0.014,0-0.027,0-0.04-0.001h-5.648V5.195h5.694v0.004c0.418,0,0.756,0.357,0.757,0.797c0.001,0.441-0.338,0.798-0.756,0.799
		c-0.014,0-0.027,0-0.04-0.001h-4.074v2.922h4.087c0.006-0.001,0.012-0.001,0.019-0.001c0.415-0.001,0.752,0.353,0.752,0.79
		c0.001,0.437-0.335,0.792-0.749,0.792c-0.016,0-0.032-0.001-0.048-0.001H82.289z"/>
	<path fill="#2E3192" d="M91.166,11.035c0,1.303,0.476,2.391,1.429,3.263c0.953,0.873,2.146,1.308,3.579,1.308
		c0.677,0,1.38-0.138,2.11-0.416c0.056-0.021,0.111-0.043,0.167-0.066c0.338-0.087,0.713,0.066,0.907,0.397
		c0.233,0.396,0.117,0.896-0.258,1.116c-0.01,0.006-0.02,0.012-0.03,0.017c-0.03,0.014-0.061,0.027-0.091,0.04
		c-0.002,0.001-0.005,0.002-0.007,0.003c-0.916,0.4-1.894,0.599-2.935,0.599c-1.813,0-3.362-0.614-4.65-1.841
		c-1.286-1.228-1.929-2.707-1.929-4.44c0-1.701,0.633-3.158,1.898-4.371c1.265-1.212,2.789-1.817,4.571-1.817
		c0.956,0,1.938,0.179,2.948,0.537c0.024,0.009,0.048,0.017,0.071,0.025c0.001,0.001,0.003,0.001,0.004,0.002
		c0.167,0.07,0.315,0.195,0.415,0.366c0.066,0.113,0.105,0.235,0.118,0.357v0.179c-0.026,0.247-0.159,0.475-0.383,0.607
		c-0.201,0.119-0.436,0.135-0.648,0.065c-0.02-0.007-0.04-0.015-0.061-0.022c-0.001-0.001-0.003-0.001-0.004-0.002
		c-0.846-0.307-1.642-0.459-2.387-0.459c-1.36,0-2.506,0.439-3.437,1.318C91.631,8.677,91.166,9.755,91.166,11.035z"/>
	<path fill="#2E3192" d="M110.575,6.029v10.037c0,0.461-0.353,0.835-0.79,0.835c-0.001,0-0.001,0-0.001,0
		c-0.419,0-0.762-0.344-0.789-0.78v-4.844h-5.596v4.832c-0.025,0.43-0.356,0.774-0.766,0.79c-0.011,0.001-0.021,0.001-0.032,0.001
		c-0.001,0-0.001,0-0.001,0h-0.009c-0.434-0.005-0.785-0.375-0.79-0.833v-0.009c0-0.001,0-0.001,0-0.001V6.04
		c0-0.001,0-0.001,0-0.001V6.029c0.005-0.458,0.356-0.829,0.79-0.834h0.017c0.01,0.001,0.02,0.001,0.03,0.001
		c0.001-0.001,0.001-0.001,0.002,0c0.407,0.022,0.733,0.362,0.759,0.79v3.711h5.596V5.971c0.029-0.433,0.37-0.775,0.788-0.776
		C110.219,5.195,110.574,5.568,110.575,6.029z"/>
</g>
<path d="M52.97,19.422l-0.026,0.057C52.951,19.459,52.96,19.44,52.97,19.422z"/>
<path d="M68.991,19.098c-0.005,0.001-0.01,0.001-0.015,0.001c-0.011,0-0.021,0-0.031-0.001H68.991z"/>
<path d="M84.801,17.386c0,0.013-0.001,0.026-0.001,0.038V17.35C84.8,17.362,84.801,17.374,84.801,17.386z"/>
<path d="M82.28,17.567v-0.127C82.285,17.483,82.285,17.525,82.28,17.567z"/>
</svg>
